<?xml version="1.0" encoding="UTF-8" standalone="no"?>
<!DOCTYPE svg PUBLIC "-//W3C//DTD SVG 1.1//EN" "http://www.w3.org/Graphics/SVG/1.1/DTD/svg11.dtd">
<svg version="1.1" xmlns="http://www.w3.org/2000/svg" xmlns:xlink="http://www.w3.org/1999/xlink" preserveAspectRatio="xMidYMid meet" viewBox="168.12598425196848 179.37795275590548 311.93700787401576 311.9370078740158" width="303.94" height="303.94"><defs><path d="" id="fr5A9JFuq"></path><path d="M476.06 335.35C476.06 419.22 407.97 487.31 324.09 487.31C240.22 487.31 172.13 419.22 172.13 335.35C172.13 251.47 240.22 183.38 324.09 183.38C407.97 183.38 476.06 251.47 476.06 335.35Z" id="hzi6BbEKE"></path><path d="M224.88 264.48C224.88 268.39 221.71 271.57 217.8 271.57C213.88 271.57 210.71 268.39 210.71 264.48C210.71 260.57 213.88 257.39 217.8 257.39C221.71 257.39 224.88 260.57 224.88 264.48Z" id="b1nmt06dTB"></path><path d="M454.57 298.1C454.57 302.01 451.39 305.19 447.48 305.19C443.57 305.19 440.39 302.01 440.39 298.1C440.39 294.19 443.57 291.02 447.48 291.02C451.39 291.02 454.57 294.19 454.57 298.1Z" id="c1EZsOdimY"></path><path d="" id="h3X0Ao6cjY"></path><path d="M248.85 394.78C309.12 470.13 362.49 466.42 408.96 383.66C241.96 315.73 188.59 319.43 248.85 394.78Z" id="a7wA8ctYQz"></path><path d="" id="a2QhLs9tVm"></path></defs><g><g><g><use xlink:href="#fr5A9JFuq" opacity="1" fill-opacity="0" stroke="#000000" stroke-width="1" stroke-opacity="1"></use></g></g><g><g><use xlink:href="#hzi6BbEKE" opacity="1" fill-opacity="0" stroke="#000000" stroke-width="8" stroke-opacity="1"></use></g></g><g><use xlink:href="#b1nmt06dTB" opacity="1" fill="#292b36" fill-opacity="1"></use></g><g><use xlink:href="#c1EZsOdimY" opacity="1" fill="#292b36" fill-opacity="1"></use></g><g><g><use xlink:href="#h3X0Ao6cjY" opacity="1" fill-opacity="0" stroke="#1c2032" stroke-width="1" stroke-opacity="1"></use></g></g><g><g><use xlink:href="#a7wA8ctYQz" opacity="1" fill-opacity="0" stroke="#1c2032" stroke-width="5" stroke-opacity="1"></use></g></g><g><g><use xlink:href="#a2QhLs9tVm" opacity="1" fill-opacity="0" stroke="#1c2032" stroke-width="2" stroke-opacity="1"></use></g></g></g></svg>